<svg width="15" height="16" viewBox="0 0 15 16" fill="none" xmlns="http://www.w3.org/2000/svg">
<path d="M14.5191 8.08005C14.5206 8.28717 14.4576 8.48961 14.3388 8.65929C14.22 8.82897 14.0514 8.95747 13.8562 9.02694L9.82253 10.4914L8.35802 14.5252C8.28628 14.7185 8.15709 14.8852 7.98782 15.0029C7.81856 15.1206 7.61732 15.1837 7.41114 15.1837C7.20496 15.1837 7.00372 15.1206 6.83446 15.0029C6.66519 14.8852 6.53601 14.7185 6.46426 14.5252L4.99975 10.4914L0.966034 9.02694C0.772742 8.95519 0.606038 8.82601 0.488316 8.65674C0.370594 8.48747 0.307495 8.28623 0.307495 8.08005C0.307495 7.87388 0.370594 7.67264 0.488316 7.50337C0.606038 7.3341 0.772742 7.20492 0.966034 7.13317L4.99975 5.66866L6.46426 1.63495C6.53601 1.44166 6.66519 1.27495 6.83446 1.15723C7.00372 1.03951 7.20496 0.97641 7.41114 0.97641C7.61732 0.97641 7.81856 1.03951 7.98782 1.15723C8.15709 1.27495 8.28628 1.44166 8.35802 1.63495L9.82253 5.66866L13.8562 7.13317C14.0514 7.20264 14.22 7.33114 14.3388 7.50082C14.4576 7.67049 14.5206 7.87294 14.5191 8.08005Z" fill="#FFAA4C"/>
</svg>
