<svg width="23" height="23" viewBox="0 0 23 23" fill="none" xmlns="http://www.w3.org/2000/svg">
<path d="M22.6932 11.7042C22.6956 12.0273 22.5973 12.3432 22.412 12.6079C22.2267 12.8726 21.9636 13.073 21.6592 13.1814L15.3667 15.466L13.082 21.7586C12.9701 22.0601 12.7686 22.3202 12.5045 22.5039C12.2405 22.6875 11.9265 22.7859 11.6049 22.7859C11.2832 22.7859 10.9693 22.6875 10.7053 22.5039C10.4412 22.3202 10.2397 22.0601 10.1277 21.7586L7.84311 15.466L1.55051 13.1814C1.24898 13.0695 0.98892 12.8679 0.805274 12.6039C0.621628 12.3398 0.523193 12.0259 0.523193 11.7042C0.523193 11.3826 0.621628 11.0687 0.805274 10.8046C0.98892 10.5406 1.24898 10.339 1.55051 10.2271L7.84311 7.94247L10.1277 1.64988C10.2397 1.34834 10.4412 1.08829 10.7053 0.904639C10.9693 0.720994 11.2832 0.622559 11.6049 0.622559C11.9265 0.622559 12.2405 0.720994 12.5045 0.904639C12.7686 1.08829 12.9701 1.34834 13.082 1.64988L15.3667 7.94247L21.6592 10.2271C21.9636 10.3355 22.2267 10.5359 22.412 10.8006C22.5973 11.0653 22.6956 11.3811 22.6932 11.7042Z" fill="#FFAA4C"/>
</svg>
